<svg xmlns="http://www.w3.org/2000/svg" xmlns:xlink="http://www.w3.org/1999/xlink" viewBox="0 0 1000 1000"><defs><style>.cls-1{fill:url(#linear-gradient);}.cls-2{fill:#fff;}.cls-3{fill:url(#linear-gradient-2);}</style><linearGradient id="linear-gradient" y1="500" x2="1000" y2="500" gradientUnits="userSpaceOnUse"><stop offset="0" stop-color="#86cd74"/><stop offset="1" stop-color="#83cc73"/></linearGradient><linearGradient id="linear-gradient-2" x1="393.6" y1="512.75" x2="393.6" y2="512.75" gradientUnits="userSpaceOnUse"><stop offset="0" stop-color="#86cd74"/><stop offset="1" stop-color="#21b459"/></linearGradient></defs><g id="Layer_2" data-name="Layer 2"><rect class="cls-1" width="1000" height="1000"/></g><g id="Layer_1" data-name="Layer 1"><path class="cls-2" d="M728.35,521.5h-1a21.65,21.65,0,0,0-21.65,21.65v2.32a86.67,86.67,0,0,1-43.33,75l-119,68.72a86.66,86.66,0,0,1-86.66,0l-119-68.72a86.67,86.67,0,0,1-43.33-75v-2.32a21.65,21.65,0,0,0-21.65-21.65h-1A21.65,21.65,0,0,0,250,543.15v27.9a86.67,86.67,0,0,0,43.33,75.06l163.34,94.3a86.66,86.66,0,0,0,86.66,0l163.34-94.3A86.67,86.67,0,0,0,750,571.05v-27.9A21.65,21.65,0,0,0,728.35,521.5Z"/><path class="cls-2" d="M728.35,482.83h-1a21.65,21.65,0,0,1-21.65-21.65v-6.65a86.67,86.67,0,0,0-43.33-75l-119-68.72a86.66,86.66,0,0,0-86.66,0l-119,68.72a86.67,86.67,0,0,0-43.33,75v6.65a21.65,21.65,0,0,1-21.65,21.65h-1A21.65,21.65,0,0,1,250,461.18V429a86.67,86.67,0,0,1,43.33-75.06l163.34-94.3a86.66,86.66,0,0,1,86.66,0l163.34,94.3A86.67,86.67,0,0,1,750,429v32.23A21.65,21.65,0,0,1,728.35,482.83Z"/><path class="cls-2" d="M627.05,459.86a86.68,86.68,0,0,0-86.67,0L435.75,520.27l-39.64-22.88a86.63,86.63,0,0,0-86.67,0l-43.2,24.94a21.45,21.45,0,0,1,5.41-.71h1a21.65,21.65,0,0,1,21.65,21.65v14l15.12-8.73a86.66,86.66,0,0,1,81.8-2.6l-.08,0c2.33,1.07,4.66,2.16,7,3.31a324.8,324.8,0,0,1,43.15,25.35l73.8,42.6a86.68,86.68,0,0,1,43.34,75.06V719.6L602.78,694V666.74a86.65,86.65,0,0,0-43.34-75l-79.38-45.83L540.38,511a86.68,86.68,0,0,1,86.67,0l78.63,45.4V543.27a21.65,21.65,0,0,1,21.65-21.65h1a21.39,21.39,0,0,1,9.58,2.26Z"/><path class="cls-3" d="M393.6,512.75"/></g></svg>